<svg width="60" height="60" viewBox="0 0 60 60" fill="none" xmlns="http://www.w3.org/2000/svg">
<path d="M51.7925 32.65C52.4948 31.9468 52.8892 30.9937 52.8892 30C52.8892 29.0062 52.4948 28.0531 51.7925 27.35L37.6525 13.2025C36.949 12.499 35.9949 12.1038 35 12.1038C34.0051 12.1038 33.051 12.499 32.3475 13.2025C31.644 13.9059 31.2488 14.8601 31.2488 15.855C31.2488 16.8498 31.644 17.804 32.3475 18.5075L40.0875 26.25L11.25 26.25C10.2554 26.25 9.30162 26.645 8.59835 27.3483C7.89509 28.0516 7.5 29.0054 7.5 30C7.5 30.9945 7.89509 31.9483 8.59835 32.6516C9.30162 33.3549 10.2554 33.75 11.25 33.75L40.0875 33.75L32.3475 41.49C31.9992 41.8383 31.7229 42.2518 31.5343 42.7069C31.3458 43.1621 31.2488 43.6498 31.2488 44.1425C31.2488 44.6351 31.3458 45.1229 31.5343 45.578C31.7229 46.0331 31.9992 46.4466 32.3475 46.795C32.6958 47.1433 33.1094 47.4196 33.5645 47.6081C34.0196 47.7966 34.5074 47.8937 35 47.8937C35.4926 47.8937 35.9804 47.7966 36.4355 47.6081C36.8906 47.4196 37.3042 47.1433 37.6525 46.795L51.7925 32.65Z" fill="#FDC97C"/>
</svg>
