<svg width="52" height="45" viewBox="0 0 52 45" fill="none" xmlns="http://www.w3.org/2000/svg">
<path d="M26 11.75C27.7857 4.67741 34.5301 1.06608 49.2143 1.00001C49.449 0.999124 49.6816 1.04486 49.8987 1.13459C50.1157 1.22431 50.3129 1.35625 50.4789 1.5228C50.6449 1.68935 50.7764 1.88721 50.8659 2.10499C50.9553 2.32276 51.0009 2.55614 51 2.79168V35.0417C51 35.5168 50.8119 35.9726 50.477 36.3086C50.1421 36.6446 49.6879 36.8333 49.2143 36.8333C34.9286 36.8333 29.4096 39.7235 26 44M26 11.75C24.2143 4.67741 17.4699 1.06608 2.78573 1.00001C2.55097 0.999124 2.31837 1.04486 2.10132 1.13459C1.88426 1.22431 1.68706 1.35625 1.52106 1.5228C1.35507 1.68935 1.22357 1.88721 1.13414 2.10499C1.04471 2.32276 0.999127 2.55614 1.00001 2.79168V34.8256C1.00001 35.9319 1.68305 36.8333 2.78573 36.8333C17.0714 36.8333 22.6105 39.7448 26 44M26 11.75V44" stroke="white" stroke-width="2" stroke-linecap="round" stroke-linejoin="round"/>
</svg>
