<svg width="329" height="320" viewBox="0 0 329 320" fill="none" xmlns="http://www.w3.org/2000/svg">
<path d="M316.353 165.962C337.841 177.407 329.142 210.026 304.808 209.251L229.152 206.841C217.725 206.477 207.766 214.562 205.772 225.82L192.576 300.355C188.332 324.328 154.621 326.135 147.839 302.752L126.752 230.055C123.567 219.074 112.8 212.1 101.477 213.684L26.5124 224.166C2.4006 227.538 -9.7347 196.035 10.4075 182.359L73.031 139.839C82.4897 133.417 85.7951 121.022 80.7904 110.743L47.6556 42.6863C36.998 20.7965 63.2085 -0.479597 82.4395 14.4506L142.23 60.8697C151.261 67.8809 164.07 67.1944 172.3 59.2581L226.787 6.7143C244.312 -10.1859 272.646 8.16701 264.389 31.0705L238.718 102.279C234.841 113.034 239.452 125.005 249.543 130.379L316.353 165.962Z" fill="#FDC97C"/>
</svg>
